<?xml version="1.0" standalone="no"?>
<!DOCTYPE svg PUBLIC "-//W3C//DTD SVG 20010904//EN"
 "http://www.w3.org/TR/2001/REC-SVG-20010904/DTD/svg10.dtd">
<svg version="1.0" xmlns="http://www.w3.org/2000/svg"
 width="512.000000pt" height="512.000000pt" viewBox="0 0 512.000000 512.000000"
 preserveAspectRatio="xMidYMid meet">

<g transform="translate(0.000000,512.000000) scale(0.100000,-0.100000)"
fill="#000000" stroke="none">
<path d="M2361 3544 c-68 -18 -109 -43 -155 -94 -135 -150 -120 -384 35 -554
55 -60 162 -121 231 -133 22 -3 42 -11 44 -18 6 -14 -36 -185 -73 -300 -38
-120 -125 -294 -182 -365 -155 -193 -340 -222 -470 -73 -40 45 -111 175 -111
203 0 7 19 53 41 104 105 232 188 544 196 742 7 138 -6 194 -58 257 -55 66
-98 82 -224 82 -100 0 -115 -2 -167 -28 -69 -34 -116 -93 -149 -187 -20 -58
-23 -82 -21 -229 2 -251 31 -496 81 -690 l20 -74 -37 -45 c-61 -74 -143 -141
-221 -180 -65 -32 -86 -37 -157 -40 -72 -4 -88 -1 -123 19 -54 30 -81 85 -81
165 0 116 58 446 144 818 34 146 40 227 27 316 -30 192 -127 289 -297 298
-243 13 -447 -121 -461 -302 -5 -60 -4 -65 20 -80 22 -15 29 -16 59 -2 18 8
64 37 103 65 57 42 77 51 110 51 83 0 110 -65 102 -244 -4 -110 -13 -154 -95
-482 -109 -432 -113 -455 -101 -562 13 -115 41 -182 104 -250 91 -98 208 -142
380 -143 55 0 125 5 155 12 130 27 312 141 410 258 24 28 46 51 49 51 3 0 19
-24 35 -53 71 -127 182 -231 274 -257 53 -14 196 -12 277 5 86 18 190 67 272
128 205 152 364 497 421 910 l18 132 47 26 c95 51 156 133 157 210 0 67 -49
78 -128 29 -27 -16 -52 -30 -56 -30 -3 0 -6 51 -6 113 0 175 -37 285 -123 364
-75 69 -193 90 -316 57z m165 -222 c40 -26 63 -150 47 -252 l-8 -55 -45 45
c-27 27 -50 62 -58 86 -15 50 -16 138 -2 165 11 19 45 25 66 11z m-856 -177
c20 -40 18 -233 -4 -335 -25 -118 -69 -253 -77 -238 -4 7 -12 60 -17 118 -35
341 -17 497 56 488 18 -2 32 -13 42 -33z"/>
<path d="M4625 3543 c-16 -3 -38 -11 -47 -20 -9 -8 -51 -99 -93 -201 -135
-330 -240 -526 -342 -641 -39 -44 -40 -45 -73 -31 -55 23 -149 18 -200 -11
-53 -29 -68 -64 -51 -120 12 -41 67 -87 126 -106 40 -13 49 -44 80 -271 46
-342 64 -410 127 -478 56 -60 105 -77 215 -72 145 6 273 70 408 203 95 94 153
194 162 279 6 59 -10 121 -33 130 -11 4 -58 -35 -148 -122 -182 -177 -226
-205 -288 -189 -40 10 -79 101 -132 303 -25 94 -55 193 -67 220 -19 45 -19 50
-4 59 10 6 52 36 95 67 235 174 455 512 489 753 10 69 1 168 -19 205 -22 42
-100 58 -205 43z"/>
<path d="M3630 3445 c-151 -18 -262 -42 -368 -80 -163 -59 -237 -122 -262
-226 -13 -55 -8 -100 15 -136 21 -32 45 -29 93 13 75 63 150 102 240 122 110
25 222 37 222 24 0 -6 -9 -32 -20 -58 -87 -201 -220 -646 -275 -917 -46 -229
-60 -376 -47 -494 10 -97 20 -119 60 -134 33 -13 183 6 237 30 66 29 81 61 89
189 14 231 67 478 205 948 44 149 87 311 97 360 9 49 23 99 31 112 26 42 43
104 44 160 2 49 -2 59 -25 79 -25 21 -36 23 -129 22 -56 -1 -149 -7 -207 -14z"/>
</g>
</svg>
